<?xml version="1.0" encoding="UTF-8" standalone="no"?><!DOCTYPE svg PUBLIC "-//W3C//DTD SVG 1.1//EN" "http://www.w3.org/Graphics/SVG/1.1/DTD/svg11.dtd"><svg width="100%" height="100%" viewBox="0 0 210 210" version="1.1" xmlns="http://www.w3.org/2000/svg" xmlns:xlink="http://www.w3.org/1999/xlink" xml:space="preserve" xmlns:serif="http://www.serif.com/" style="fill-rule:evenodd;clip-rule:evenodd;stroke-linejoin:round;stroke-miterlimit:2;"><circle cx="105.118" cy="105" r="104.803"/><clipPath id="_clip1"><circle cx="105.118" cy="105" r="104.803"/></clipPath><g clip-path="url(#_clip1)"><path d="M170.383,243.232l-0.594,-1.95c-5.168,-16.978 -11.723,-28.431 -17.335,-39.04c-7.574,-14.32 -13.208,-26.955 -9.554,-52.229c0.015,-0.105 0.03,-0.212 0.044,-0.319c2.895,-17.686 4.12,-35.646 2.959,-53.986c1.565,11.7 14.77,33.459 25.502,52.245c6.287,11.005 6.054,23.158 9.102,29.822c11.608,25.375 13.505,45.393 14.338,65.457l-24.462,0Zm-123.528,0c6.064,-20.005 2.3,-40.545 18.334,-61.193c10.341,-13.318 12.036,-33.354 13.098,-54.517c7.124,15.626 12.249,33.238 8.208,56.276c-0.833,4.752 0.232,13.324 1.939,22.201c2.171,11.296 5.333,23.13 5.904,27.147c-2.364,3.588 -4.619,6.955 -6.7,10.086l-40.783,0Zm48.789,0c1.517,-2.276 3.107,-4.664 4.748,-7.157c0.128,-0.161 0.242,-0.333 0.339,-0.514c6.061,-9.22 12.799,-19.865 19.131,-31.665c5.68,-10.586 11.029,-22.087 15.301,-34.314c1.595,28.514 17.853,39.591 28.22,73.65l-67.739,0Zm3.817,-17.974c-1.273,-5.656 -3.043,-13.202 -4.451,-20.524c-1.521,-7.915 -2.662,-15.542 -1.919,-19.779c5.305,-30.237 -4.068,-51.706 -14.112,-71.234c1.55,-23.792 8.317,-42.981 12.831,-58.205c3.511,-11.843 14.928,-33.719 14.928,-33.719c0.142,0.284 0.923,53.276 12.293,67.182c5.331,6.52 15.06,32.819 17.104,50.326c-3.736,22.564 -12.486,43.368 -22.174,61.425c-4.757,8.866 -9.744,17.08 -14.5,24.528Zm-93.795,17.974c3.161,-28.503 3.753,-57.877 23.574,-87.089c9.047,-13.333 14.545,-25.134 13.795,-42.809c-0.901,-21.24 8.227,-39.413 15.544,-57.818c-0.201,13.256 -0.563,21.881 2.605,36.031c1.681,7.506 9.01,14.238 9.981,21.954c0.251,1.989 0.52,3.972 0.807,5.949c-0.529,11.085 -0.958,22.045 -2.472,32.069c-1.54,10.194 -4.141,19.381 -9.6,26.412c-8.786,11.316 -12.213,22.573 -14.209,33.771c-1.775,9.955 -2.29,19.841 -5.244,29.587l-0.589,1.943l-34.192,0Z" style="fill:#fff;"/></g></svg>