<?xml version="1.0" encoding="UTF-8" standalone="no"?>
<!DOCTYPE svg PUBLIC "-//W3C//DTD SVG 1.1//EN" "http://www.w3.org/Graphics/SVG/1.1/DTD/svg11.dtd">
<svg viewBox="0 0 510 301" version="1.1" xmlns="http://www.w3.org/2000/svg" xmlns:xlink="http://www.w3.org/1999/xlink" xml:space="preserve" xmlns:serif="http://www.serif.com/" style="fill-rule:evenodd;clip-rule:evenodd;stroke-linejoin:round;stroke-miterlimit:2;">
    <g transform="matrix(1,0,0,1,-1185,-387)">
        <g transform="matrix(4.33579,0,0,2.53023,4028.76,6309.5)">
            <g transform="matrix(0.205512,-0.0304359,0,0.352165,-862.236,-2508.12)">
                <g>
                    <g transform="matrix(25.7551,-0.0128569,-4.44089e-16,25.5647,-6609.55,-13670)">
                        <g transform="matrix(12,0,0,12,299.682,567.215)">
                            <path d="M0.125,-0l0,-0.57l-0.095,0l0,-0.13l0.34,0l0,0.13l-0.095,0l0,0.57l-0.15,-0Z" style="fill-rule:nonzero;"/>
                        </g>
                        <g transform="matrix(12,0,0,12,304.122,567.215)">
                            <path d="M0.205,0.01c-0.032,0 -0.061,-0.008 -0.088,-0.024c-0.027,-0.015 -0.048,-0.036 -0.064,-0.063c-0.015,-0.026 -0.023,-0.055 -0.023,-0.088l-0,-0.37c-0,-0.033 0.008,-0.062 0.023,-0.089c0.016,-0.026 0.037,-0.047 0.064,-0.063c0.027,-0.015 0.056,-0.023 0.088,-0.023c0.032,-0 0.061,0.008 0.088,0.023c0.027,0.016 0.048,0.037 0.063,0.063c0.016,0.027 0.024,0.056 0.024,0.089l-0,0.37c0,0.033 -0.008,0.062 -0.024,0.088c-0.015,0.027 -0.036,0.048 -0.063,0.063c-0.027,0.016 -0.056,0.024 -0.088,0.024Zm-0,-0.132c0.007,-0 0.013,-0.003 0.018,-0.008c0.005,-0.005 0.007,-0.01 0.007,-0.017l-0,-0.407c-0,-0.007 -0.002,-0.013 -0.007,-0.018c-0.005,-0.005 -0.011,-0.008 -0.018,-0.008c-0.007,0 -0.014,0.003 -0.019,0.008c-0.005,0.005 -0.007,0.011 -0.007,0.018l-0,0.407c-0,0.007 0.002,0.013 0.007,0.018c0.005,0.005 0.012,0.007 0.019,0.007Z" style="fill-rule:nonzero;"/>
                        </g>
                        <g transform="matrix(12,0,0,12,308.814,567.215)">
                            <path d="M0.187,0.01c-0.032,0 -0.06,-0.008 -0.083,-0.024c-0.024,-0.015 -0.042,-0.036 -0.055,-0.063c-0.013,-0.026 -0.019,-0.055 -0.019,-0.088l0,-0.098c0,-0.032 0.008,-0.061 0.024,-0.088c0.015,-0.027 0.036,-0.048 0.063,-0.064c0.027,-0.015 0.056,-0.023 0.088,-0.023l0.027,0l0,-0.128c0,-0.007 -0.003,-0.013 -0.008,-0.018c-0.005,-0.005 -0.012,-0.008 -0.019,-0.008c-0.007,0 -0.013,0.003 -0.018,0.008c-0.005,0.005 -0.008,0.011 -0.008,0.018l0,0.102l-0.149,0l0,-0.071c0,-0.033 0.008,-0.062 0.024,-0.088c0.015,-0.027 0.036,-0.048 0.063,-0.063c0.027,-0.016 0.056,-0.024 0.088,-0.024c0.033,0 0.062,0.008 0.089,0.024c0.026,0.015 0.047,0.036 0.063,0.063c0.015,0.026 0.023,0.055 0.023,0.088l0,0.535l-0.105,0l0,-0.035l-0.01,0c-0.007,0.015 -0.018,0.026 -0.033,0.034c-0.015,0.007 -0.03,0.011 -0.045,0.011Zm0.018,-0.139c0.007,0 0.014,-0.002 0.019,-0.007c0.005,-0.005 0.008,-0.012 0.008,-0.019l0,-0.143l-0.027,0c-0.007,0 -0.013,0.003 -0.018,0.008c-0.005,0.005 -0.008,0.011 -0.008,0.018l0,0.117c-0,0.007 0.003,0.014 0.008,0.019c0.005,0.005 0.011,0.007 0.018,0.007Z" style="fill-rule:nonzero;"/>
                        </g>
                        <g transform="matrix(12,0,0,12,313.374,567.215)">
                            <path d="M0.125,-0l0,-0.57l-0.095,0l0,-0.13l0.34,0l0,0.13l-0.095,0l0,0.57l-0.15,-0Z" style="fill-rule:nonzero;"/>
                        </g>
                    </g>
                    <g transform="matrix(25.5647,-0.0127619,-7.87773e-32,25.5647,-20408.7,-7346.22)">
                        <path d="M837.622,313.803c-0.001,-0.018 -0.002,-0.036 -0.002,-0.054l0,-0.048c0,-0.392 0.094,-0.746 0.282,-1.062c0.188,-0.316 0.442,-0.568 0.762,-0.756c0.32,-0.188 0.672,-0.282 1.056,-0.282c0.392,0 0.746,0.094 1.062,0.282c0.316,0.188 0.568,0.44 0.756,0.756c0.188,0.316 0.282,0.67 0.282,1.062l0,0.852l-1.776,0l0,-0.924c0,-0.088 -0.032,-0.164 -0.096,-0.228c-0.064,-0.064 -0.14,-0.096 -0.228,-0.096c-0.08,0 -0.152,0.032 -0.216,0.096c-0.064,0.064 -0.096,0.14 -0.096,0.228c0,0.003 0,0.005 0.001,0.007c-0,0 -0.008,0.528 -0.008,1.106c-0,0.318 0.338,0.268 0.338,0.268l0.503,-0c0.771,-0 1.578,0.826 1.578,2.15c0,0.403 0,0.981 0,0.981c0,0.392 -0.094,0.746 -0.282,1.062c-0.188,0.316 -0.44,0.568 -0.756,0.756c-0.316,0.188 -0.67,0.282 -1.062,0.282c-0.384,0 -0.736,-0.094 -1.056,-0.282c-0.32,-0.188 -0.574,-0.44 -0.762,-0.756c-0.188,-0.316 -0.282,-0.67 -0.282,-1.062l0,-0.96l1.771,0l0.017,0.037l0,0.983c0,0.08 0.03,0.154 0.09,0.222c0.06,0.068 0.134,0.102 0.222,0.102c0.088,0 0.174,-0.025 0.228,-0.102c0.086,-0.12 0.088,-0.433 0.094,-0.494c0.009,-0.09 0.016,-0.351 0.016,-0.929c-0,-0.304 -0.319,-0.273 -0.319,-0.273l-0.503,-0c-0.771,-0 -1.597,-0.668 -1.597,-1.992c0,-0.404 -0.017,-0.932 -0.017,-0.932Z"/>
                    </g>
                </g>
                <g transform="matrix(2.55453,-0.00127522,-1.37482e-33,0.446154,-1951.86,539.891)">
                    <rect x="1157.41" y="705.498" width="212.033" height="104.016"/>
                </g>
            </g>
        </g>
    </g>
</svg>
